<svg xmlns="http://www.w3.org/2000/svg" version="1.1" xmlns:xlink="http://www.w3.org/1999/xlink" xmlns:svgjs="http://svgjs.dev/svgjs" width="1000" height="1000" viewBox="0 0 1000 1000"><rect width="1000" height="1000" fill="#ffffff"></rect><g transform="matrix(0.7,0,0,0.7,149.57576480449154,380.1744520025303)"><svg viewBox="0 0 396 136" data-background-color="#ffffff" preserveAspectRatio="xMidYMid meet" height="343" width="1000" xmlns="http://www.w3.org/2000/svg" xmlns:xlink="http://www.w3.org/1999/xlink"><g id="tight-bounds" transform="matrix(1,0,0,1,0.2399959106019196,-0.12713649456108556)"><svg viewBox="0 0 395.52 136.2542258747107" height="136.2542258747107" width="395.52"><g><svg viewBox="0 0 651.0388858563126 224.27892244813415" height="136.2542258747107" width="395.52"><g transform="matrix(1,0,0,1,255.51888585631258,66.46968042431786)"><svg viewBox="0 0 395.52 91.33956159949844" height="91.33956159949844" width="395.52"><g id="textblocktransform"><svg viewBox="0 0 395.52 91.33956159949844" height="91.33956159949844" width="395.52" id="textblock"><g><svg viewBox="0 0 395.52 66.16505576208178" height="66.16505576208178" width="395.52"><g transform="matrix(1,0,0,1,0,0)"><svg width="395.52" viewBox="1 -35.5 215.17999267578125 36" height="66.16505576208178" data-palette-color="#8b3c7f"><path d="M4.55 0L2 0Q1.6 0 1.3-0.3 1-0.6 1-1L1-1Q1-1.25 1.05-1.55L1.05-1.55 13.45-33.9Q13.65-34.4 14-34.7 14.35-35 15.05-35L15.05-35 18.45-35Q19.15-35 19.5-34.7 19.85-34.4 20.05-33.9L20.05-33.9 32.4-1.55Q32.5-1.25 32.5-1L32.5-1Q32.5-0.6 32.2-0.3 31.9 0 31.5 0L31.5 0 28.95 0Q28.35 0 28.08-0.3 27.8-0.6 27.7-0.85L27.7-0.85 24.95-7.95 8.55-7.95 5.8-0.85Q5.75-0.6 5.45-0.3 5.15 0 4.55 0L4.55 0ZM16.75-30L10-12.25 23.5-12.25 16.75-30ZM59.4 0L39 0Q38.45 0 38.15-0.33 37.85-0.65 37.85-1.15L37.85-1.15 37.85-33.85Q37.85-34.35 38.15-34.68 38.45-35 39-35L39-35 41.65-35Q42.15-35 42.47-34.68 42.8-34.35 42.8-33.85L42.8-33.85 42.8-4.35 59.4-4.35Q59.95-4.35 60.27-4.03 60.6-3.7 60.6-3.15L60.6-3.15 60.6-1.15Q60.6-0.65 60.27-0.33 59.95 0 59.4 0L59.4 0ZM78.75 0.5L78.75 0.5Q74.3 0.5 71.22-1.15 68.15-2.8 66.52-5.8 64.9-8.8 64.7-12.85L64.7-12.85Q64.65-15.05 64.65-17.53 64.65-20 64.7-22.25L64.7-22.25Q64.9-26.3 66.52-29.28 68.15-32.25 71.25-33.88 74.35-35.5 78.75-35.5L78.75-35.5Q82.25-35.5 84.85-34.5 87.45-33.5 89.12-31.98 90.8-30.45 91.62-28.8 92.45-27.15 92.5-25.9L92.5-25.9Q92.55-25.45 92.25-25.18 91.95-24.9 91.45-24.9L91.45-24.9 88.5-24.9Q88-24.9 87.77-25.1 87.55-25.3 87.35-25.8L87.35-25.8Q86.9-27.1 85.87-28.35 84.85-29.6 83.12-30.43 81.4-31.25 78.75-31.25L78.75-31.25Q74.75-31.25 72.32-29.1 69.9-26.95 69.7-22L69.7-22Q69.55-17.55 69.7-13.1L69.7-13.1Q69.9-8.1 72.35-5.93 74.8-3.75 78.75-3.75L78.75-3.75Q81.4-3.75 83.47-4.75 85.55-5.75 86.75-7.78 87.95-9.8 87.95-12.95L87.95-12.95 87.95-15.05 80.45-15.05Q79.95-15.05 79.62-15.38 79.3-15.7 79.3-16.25L79.3-16.25 79.3-17.85Q79.3-18.4 79.62-18.73 79.95-19.05 80.45-19.05L80.45-19.05 91.75-19.05Q92.3-19.05 92.6-18.73 92.9-18.4 92.9-17.85L92.9-17.85 92.9-13.05Q92.9-8.95 91.22-5.9 89.55-2.85 86.35-1.18 83.15 0.5 78.75 0.5ZM112.64 0.5L112.64 0.5Q108.34 0.5 105.29-0.98 102.24-2.45 100.59-5.53 98.94-8.6 98.74-13.25L98.74-13.25Q98.69-15.45 98.69-17.48 98.69-19.5 98.74-21.7L98.74-21.7Q98.94-26.3 100.67-29.38 102.39-32.45 105.47-33.98 108.54-35.5 112.64-35.5L112.64-35.5Q116.69-35.5 119.77-33.98 122.84-32.45 124.59-29.38 126.34-26.3 126.49-21.7L126.49-21.7Q126.59-19.5 126.59-17.48 126.59-15.45 126.49-13.25L126.49-13.25Q126.34-8.6 124.67-5.53 122.99-2.45 119.94-0.98 116.89 0.5 112.64 0.5ZM112.64-3.75L112.64-3.75Q116.44-3.75 118.87-6.05 121.29-8.35 121.49-13.5L121.49-13.5Q121.59-15.75 121.59-17.53 121.59-19.3 121.49-21.5L121.49-21.5Q121.39-24.95 120.22-27.1 119.04-29.25 117.09-30.25 115.14-31.25 112.64-31.25L112.64-31.25Q110.14-31.25 108.19-30.25 106.24-29.25 105.07-27.1 103.89-24.95 103.74-21.5L103.74-21.5Q103.69-19.3 103.69-17.53 103.69-15.75 103.74-13.5L103.74-13.5Q103.94-8.35 106.39-6.05 108.84-3.75 112.64-3.75ZM159.79 0L156.54 0Q155.79 0 155.36-0.35 154.94-0.7 154.69-1.3L154.69-1.3 143.54-33.45Q143.44-33.75 143.44-34L143.44-34Q143.44-34.4 143.74-34.7 144.04-35 144.44-35L144.44-35 147.04-35Q147.64-35 147.96-34.68 148.29-34.35 148.39-34.1L148.39-34.1 158.14-5.75 167.94-34.1Q168.04-34.35 168.34-34.68 168.64-35 169.24-35L169.24-35 171.84-35Q172.24-35 172.56-34.7 172.89-34.4 172.89-34L172.89-34Q172.89-33.75 172.79-33.45L172.79-33.45 161.59-1.3Q161.39-0.7 160.96-0.35 160.54 0 159.79 0L159.79 0ZM182.69 0L180.04 0Q179.49 0 179.19-0.33 178.89-0.65 178.89-1.15L178.89-1.15 178.89-33.85Q178.89-34.35 179.19-34.68 179.49-35 180.04-35L180.04-35 182.69-35Q183.24-35 183.54-34.68 183.84-34.35 183.84-33.85L183.84-33.85 183.84-1.15Q183.84-0.65 183.54-0.33 183.24 0 182.69 0L182.69 0ZM214.98 0L191.38 0Q190.83 0 190.53-0.35 190.23-0.7 190.23-1.2L190.23-1.2 190.23-3.35Q190.23-4.1 190.53-4.55 190.83-5 190.98-5.2L190.98-5.2 209.58-30.65 191.83-30.65Q191.33-30.65 191.01-30.98 190.68-31.3 190.68-31.8L190.68-31.8 190.68-33.8Q190.68-34.35 191.01-34.68 191.33-35 191.83-35L191.83-35 214.48-35Q215.03-35 215.36-34.68 215.68-34.35 215.68-33.8L215.68-33.8 215.68-31.65Q215.68-31.05 215.48-30.65 215.28-30.25 215.03-29.9L215.03-29.9 196.58-4.35 214.98-4.35Q215.53-4.35 215.86-4.03 216.18-3.7 216.18-3.15L216.18-3.15 216.18-1.15Q216.18-0.65 215.86-0.33 215.53 0 214.98 0L214.98 0Z" opacity="1" transform="matrix(1,0,0,1,0,0)" fill="#8b3c7f" class="undefined-text-0" data-fill-palette-color="primary" id="text-0"></path></svg></g></svg></g><g transform="matrix(1,0,0,1,0,81.78503746617099)"><svg viewBox="0 0 232.20979200000002 9.554524133327444" height="9.554524133327444" width="232.20979200000002"><g transform="matrix(1,0,0,1,0,0)"><svg width="232.20979200000002" viewBox="0.05000000074505806 -33.900001525878906 849.342529296875 34.95000076293945" height="9.554524133327444" data-palette-color="#8b3c7f"><path d="M47.3-32.7L47.6-31.1 43.8-29.45 35.4 0.1Q32.25 0.65 29.1 0.6L29.1 0.6 23.7-17.85 22.65-12.05 18.9 0.1 18.85 0.05 18.85 0.1Q15.7 0.65 12.65 0.6L12.65 0.6 3.65-29.8 0.05-30.25 0.1-32.7 14.1-32.7 14.4-31.1 10.15-29.3 15.35-10.25 15.85-4 16.05-4 21.9-23.95 19.9-30.8 25.9-32.25 31.6-10.45 32.2-4 32.35-4 39.3-29.6 34.35-30.25 34.4-32.7 47.3-32.7ZM79.3-3.05L84.05-2.45 84 0 69.25 0 68.95-1.6 73.2-3.4 73.2-14.3 58.35-14.3 58.35-3.05 63.1-2.45 63.05 0 48.3 0 48-1.6 52.25-3.4 52.25-29.75 48.4-30.25 48.45-32.7 62.3-32.7 62.6-31.1Q61.35-30.4 58.35-29.3L58.35-29.3 58.35-18.2 73.2-18.2 73.2-29.75 69.35-30.25 69.4-32.7 83.25-32.7 83.55-31.1Q82.3-30.4 79.3-29.3L79.3-29.3 79.3-3.05ZM108.05-9.7L111.45-9.45Q111.55-4.45 110.85 0L110.85 0 86.15 0 85.85-1.6 90.1-3.4 90.1-29.85 86.5-30.2 86.55-32.7 111-32.7 111.05-31.3Q111.05-27.75 110.35-23.85L110.35-23.85 106.9-23.85 106.15-28.65 96.2-29.3 96.2-17.95 107.35-18.85 107.35-14.15 96.2-14.6 96.2-3.7 106.55-4.3 108.05-9.7ZM143.29-2.85L146.59-2.45 146.54 0 137.74 0 130.74-12.85 125.69-12.8 125.69-3.1 130.64-2.45 130.59 0 115.64 0 115.34-1.6 119.59-3.4 119.59-29.85 115.99-30.2 116.04-32.7 130.99-33.1Q136.54-33.1 140.02-30.3 143.49-27.5 143.49-23.2L143.49-23.2Q143.49-20.2 141.67-17.6 139.84-15 136.59-13.75L136.59-13.75 143.29-2.85ZM125.69-28.95L125.69-16.6Q127.94-16.2 129.49-16.2L129.49-16.2Q133.59-16.2 135.29-18.2 136.99-20.2 136.99-23.15L136.99-23.15Q136.99-27.85 133.54-29.7L133.54-29.7 125.69-28.95ZM170.24-9.7L173.64-9.45Q173.74-4.45 173.04 0L173.04 0 148.34 0 148.04-1.6 152.29-3.4 152.29-29.85 148.69-30.2 148.74-32.7 173.19-32.7 173.24-31.3Q173.24-27.75 172.54-23.85L172.54-23.85 169.09-23.85 168.34-28.65 158.39-29.3 158.39-17.95 169.54-18.85 169.54-14.15 158.39-14.6 158.39-3.7 168.74-4.3 170.24-9.7ZM221.33-2.9L224.94-2.45 224.88 0 210.33 0 210.03-1.6Q211.69-2.5 214.63-3.5L214.63-3.5 212.28-9.55 199.58-9.55 197.08-3.1 201.98-2.45 201.94 0 188.69 0 188.38-1.6Q190.19-2.55 192.53-3.35L192.53-3.35 203.94-31.1 203.44-32.35 208.69-33.9 221.33-2.9ZM200.88-13L210.94-13 205.94-25.95 200.88-13ZM247.63-11L251.23-10.75Q251.33-4.2 250.58 0L250.58 0 224.88 0 224.58-1.6 228.83-3.4 228.83-29.75 224.98-30.25 225.03-32.7 238.88-32.7 239.18-31.1Q237.93-30.4 234.93-29.3L234.93-29.3 234.93-3.75 245.98-4.45 247.63-11ZM281.33-12.05L281.33-3.55 281.38-3.5 271.18 1 269.78 1.05Q264.18 1.05 260.4-1.35 256.63-3.75 254.8-7.58 252.98-11.4 252.98-15.7L252.98-15.7Q252.98-23.55 257.9-28.63 262.83-33.7 270.73-33.7L270.73-33.7Q276.83-33.7 281.03-30.65L281.03-30.65 280.98-30.5 281.03-29.3Q281.03-26.15 280.08-22.8L280.08-22.8 276.33-22.8 275.48-27.85Q271.48-29.75 267.08-29.75L267.08-29.75 265.18-29.65Q262.28-27.85 260.83-24.28 259.38-20.7 259.38-16.4L259.38-16.4Q259.38-10.7 262.35-7.03 265.33-3.35 270.13-3.3L270.13-3.3Q272.28-3.25 275.53-4L275.53-4 275.53-11.3Q272.23-12.4 270.28-13.4L270.28-13.4 270.58-15.1 285.13-15.1 285.18-12.7 281.33-12.05ZM302.88-33.7L302.88-33.7Q309.83-33.7 314.33-28.78 318.83-23.85 318.83-15.95L318.83-15.95Q318.83-8.3 314.48-3.65 310.13 1 303.23 1L303.23 1Q296.28 1 291.8-3.73 287.33-8.45 287.33-16.15L287.33-16.15Q287.33-23.9 291.73-28.8 296.13-33.7 302.88-33.7ZM297.98-29L297.98-29Q296.13-27.55 295-24.23 293.88-20.9 293.88-16.95L293.88-16.95Q293.88-10.6 296.65-6.8 299.43-3 304.13-3L304.13-3Q305.78-3 307.48-3.45L307.48-3.45Q309.58-4.95 310.88-8.28 312.18-11.6 312.18-15.7L312.18-15.7Q312.18-22 309.45-25.9 306.73-29.8 302.23-29.8L302.23-29.8Q300.18-29.8 297.98-29ZM349.02-2.85L352.32-2.45 352.27 0 343.47 0 336.47-12.85 331.42-12.8 331.42-3.1 336.37-2.45 336.32 0 321.37 0 321.07-1.6 325.32-3.4 325.32-29.85 321.72-30.2 321.77-32.7 336.72-33.1Q342.27-33.1 345.75-30.3 349.22-27.5 349.22-23.2L349.22-23.2Q349.22-20.2 347.4-17.6 345.57-15 342.32-13.75L342.32-13.75 349.02-2.85ZM331.42-28.95L331.42-16.6Q333.67-16.2 335.22-16.2L335.22-16.2Q339.32-16.2 341.02-18.2 342.72-20.2 342.72-23.15L342.72-23.15Q342.72-27.85 339.27-29.7L339.27-29.7 331.42-28.95ZM364.12-3.05L368.87-2.45 368.82 0 354.07 0 353.77-1.6 358.02-3.4 358.02-29.75 354.17-30.25 354.22-32.7 368.07-32.7 368.37-31.1Q367.12-30.4 364.12-29.3L364.12-29.3 364.12-3.05ZM399.27-33L399.27-33 399.32-31.7Q399.32-27.8 398.62-23.5L398.62-23.5 395.22-23.5 394.57-29.15 387.27-29.55 387.27-3.15 392.72-2.45 392.67 0 376.22 0 375.92-1.6 379.57-3 381.17-3.55 381.17-29.55 373.87-29.15 373.22-23.5 369.87-23.5Q369.17-27.6 369.17-31.4L369.17-31.4 369.22-33 384.32-32.8Q392.27-32.8 399.27-33ZM431.92-3.05L436.67-2.45 436.62 0 421.87 0 421.57-1.6 425.82-3.4 425.82-14.3 410.97-14.3 410.97-3.05 415.72-2.45 415.67 0 400.92 0 400.62-1.6 404.87-3.4 404.87-29.75 401.02-30.25 401.07-32.7 414.92-32.7 415.22-31.1Q413.97-30.4 410.97-29.3L410.97-29.3 410.97-18.2 425.82-18.2 425.82-29.75 421.97-30.25 422.02-32.7 435.87-32.7 436.17-31.1Q434.92-30.4 431.92-29.3L431.92-29.3 431.92-3.05ZM477.21-3.1L482.01-2.35 481.96 0 467.31 0 467.01-1.6Q468.81-2.55 471.31-3.4L471.31-3.4 471.11-19.05 471.81-27.5 462.06-0.9 462.06-0.8 457.01 0.35 447.06-27.25 447.91-19.05 447.56-3.05 451.81-2.35 451.76 0 438.76 0 438.46-1.6Q440.01-2.4 442.86-3.45L442.86-3.45 443.71-29.5 439.66-30.15 439.71-32.5 451.36-32.5 460.61-6.65 469.96-32.5 480.36-32.5 480.66-30.9Q479.16-30.05 476.76-29.25L476.76-29.25 477.21-3.1ZM508.56-8.85L508.56-8.85Q508.56-4.5 505.24-1.75 501.91 1 496.86 1L496.86 1Q494.01 1 490.74 0.1 487.46-0.8 485.61-2.35L485.61-2.35 485.66-2.5 485.61-4.25Q485.61-8.1 486.26-11.2L486.26-11.2 489.41-11.2 491.01-4.6Q494.16-2.7 498.51-2.7L498.51-2.7 499.61-2.75Q502.41-4.15 502.41-7.4L502.41-7.4Q502.41-10.2 499.01-12.15L499.01-12.15 491.11-16.2Q485.76-19.35 485.76-24.25L485.76-24.25Q485.76-28.45 489.21-31.08 492.66-33.7 498.01-33.7L498.01-33.7Q502.11-33.7 507.06-32.05L507.06-32.05Q507.31-27.85 506.41-23.2L506.41-23.2 503.06-23.2 502.11-28.4Q499.31-30.05 495.51-30.05L495.51-30.05 494.01-30Q491.66-28.55 491.66-25.7L491.66-25.7Q491.66-23.05 495.26-21.15L495.26-21.15 502.76-17.45Q508.56-14.2 508.56-8.85ZM550.41-6.65L551.51-3.65 541.46 0.8Q533.71 0.95 529.13-3.65 524.56-8.25 524.56-15.95L524.56-15.95Q524.56-23.7 529.06-28.7 533.56-33.7 540.71-33.7L540.71-33.7Q546.41-33.7 550.66-30.6L550.66-30.6 550.61-30.45 550.66-29.05Q550.66-25.3 549.66-22.2L549.66-22.2 545.86-22.2 545.06-27.95Q541.66-29.7 537.61-29.7L537.61-29.7 536.41-29.65Q533.61-27.85 532.31-24.43 531.01-21 531.01-17.15L531.01-17.15Q531.01-11 534.13-7.33 537.26-3.65 542.46-3.95L542.46-3.95 550.41-6.65ZM567.7-33.7L567.7-33.7Q574.65-33.7 579.15-28.78 583.65-23.85 583.65-15.95L583.65-15.95Q583.65-8.3 579.3-3.65 574.95 1 568.05 1L568.05 1Q561.1 1 556.63-3.73 552.15-8.45 552.15-16.15L552.15-16.15Q552.15-23.9 556.55-28.8 560.95-33.7 567.7-33.7ZM562.8-29L562.8-29Q560.95-27.55 559.83-24.23 558.7-20.9 558.7-16.95L558.7-16.95Q558.7-10.6 561.48-6.8 564.25-3 568.95-3L568.95-3Q570.6-3 572.3-3.45L572.3-3.45Q574.4-4.95 575.7-8.28 577-11.6 577-15.7L577-15.7Q577-22 574.28-25.9 571.55-29.8 567.05-29.8L567.05-29.8Q565-29.8 562.8-29ZM624.65-3.1L629.45-2.35 629.4 0 614.75 0 614.45-1.6Q616.25-2.55 618.75-3.4L618.75-3.4 618.55-19.05 619.25-27.5 609.5-0.9 609.5-0.8 604.45 0.35 594.5-27.25 595.35-19.05 595-3.05 599.25-2.35 599.2 0 586.2 0 585.9-1.6Q587.45-2.4 590.3-3.45L590.3-3.45 591.15-29.5 587.1-30.15 587.15-32.5 598.8-32.5 608.05-6.65 617.4-32.5 627.8-32.5 628.1-30.9Q626.6-30.05 624.2-29.25L624.2-29.25 624.65-3.1ZM653.5-9.7L656.9-9.45Q657-4.45 656.3 0L656.3 0 631.6 0 631.3-1.6 635.55-3.4 635.55-29.85 631.95-30.2 632-32.7 656.45-32.7 656.5-31.3Q656.5-27.75 655.8-23.85L655.8-23.85 652.35-23.85 651.6-28.65 641.65-29.3 641.65-17.95 652.8-18.85 652.8-14.15 641.65-14.6 641.65-3.7 652-4.3 653.5-9.7ZM703.19-33L703.19-33 703.24-31.7Q703.24-27.8 702.54-23.5L702.54-23.5 699.14-23.5 698.49-29.15 691.19-29.55 691.19-3.15 696.64-2.45 696.59 0 680.14 0 679.84-1.6 683.49-3 685.09-3.55 685.09-29.55 677.79-29.15 677.14-23.5 673.79-23.5Q673.09-27.6 673.09-31.4L673.09-31.4 673.14-33 688.24-32.8Q696.19-32.8 703.19-33ZM719.54-33.7L719.54-33.7Q726.49-33.7 730.99-28.78 735.49-23.85 735.49-15.95L735.49-15.95Q735.49-8.3 731.14-3.65 726.79 1 719.89 1L719.89 1Q712.94 1 708.47-3.73 703.99-8.45 703.99-16.15L703.99-16.15Q703.99-23.9 708.39-28.8 712.79-33.7 719.54-33.7ZM714.64-29L714.64-29Q712.79-27.55 711.67-24.23 710.54-20.9 710.54-16.95L710.54-16.95Q710.54-10.6 713.32-6.8 716.09-3 720.79-3L720.79-3Q722.44-3 724.14-3.45L724.14-3.45Q726.24-4.95 727.54-8.28 728.84-11.6 728.84-15.7L728.84-15.7Q728.84-22 726.12-25.9 723.39-29.8 718.89-29.8L718.89-29.8Q716.84-29.8 714.64-29ZM774.04-11L777.64-10.75Q777.74-4.2 776.99 0L776.99 0 751.29 0 750.99-1.6 755.24-3.4 755.24-29.75 751.39-30.25 751.44-32.7 765.29-32.7 765.59-31.1Q764.34-30.4 761.34-29.3L761.34-29.3 761.34-3.75 772.39-4.45 774.04-11ZM789.93-3.05L794.68-2.45 794.63 0 779.88 0 779.58-1.6 783.83-3.4 783.83-29.75 779.98-30.25 780.03-32.7 793.88-32.7 794.18-31.1Q792.93-30.4 789.93-29.3L789.93-29.3 789.93-3.05ZM816.68-28.6L806.73-29.3 806.73-17 818.08-17.85 818.08-13.05 806.73-13.5 806.73-3.25 812.68-2.45 812.63 0 796.78 0 796.48-1.6Q798.28-2.55 800.63-3.35L800.63-3.35 800.63-29.85 797.03-30.2 797.08-32.7 821.53-32.7 821.58-31.3Q821.58-27.65 820.88-23.75L820.88-23.75 817.43-23.75 816.68-28.6ZM845.98-9.7L849.38-9.45Q849.48-4.45 848.78 0L848.78 0 824.08 0 823.78-1.6 828.03-3.4 828.03-29.85 824.43-30.2 824.48-32.7 848.93-32.7 848.98-31.3Q848.98-27.75 848.28-23.85L848.28-23.85 844.83-23.85 844.08-28.65 834.13-29.3 834.13-17.95 845.28-18.85 845.28-14.15 834.13-14.6 834.13-3.7 844.48-4.3 845.98-9.7Z" opacity="1" transform="matrix(1,0,0,1,0,0)" fill="#8b3c7f" class="undefined-text-1" data-fill-palette-color="secondary" id="text-1"></path></svg></g></svg></g></svg></g></svg></g><g><svg viewBox="0 0 224.27892244813415 224.27892244813415" height="224.27892244813415" width="224.27892244813415"><g><svg></svg></g><g id="icon-0"><svg viewBox="0 0 224.27892244813415 224.27892244813415" height="224.27892244813415" width="224.27892244813415"><g><path d="M0 112.139c0-61.933 50.207-112.139 112.139-112.139 61.933 0 112.139 50.207 112.14 112.139 0 61.933-50.207 112.139-112.14 112.14-61.933 0-112.139-50.207-112.139-112.14zM112.139 218.312c58.638 0 106.173-47.535 106.173-106.173 0-58.638-47.535-106.173-106.173-106.172-58.638 0-106.173 47.535-106.172 106.172 0 58.638 47.535 106.173 106.172 106.173z" data-fill-palette-color="accent" fill="#8b3c7f" stroke="transparent"></path></g><g transform="matrix(1,0,0,1,45.51849102092976,53.44592502408437)"><svg viewBox="0 0 133.24194040627464 117.38707239996542" height="117.38707239996542" width="133.24194040627464"><g><svg xmlns="http://www.w3.org/2000/svg" xmlns:xlink="http://www.w3.org/1999/xlink" version="1.1" x="0" y="0" viewBox="6.300000190734863 11.5 87.39999389648438 77" style="enable-background:new 0 0 100 100;" xml:space="preserve" height="117.38707239996542" width="133.24194040627464" class="icon-s-0" data-fill-palette-color="accent" id="s-0"><path d="M72.3 12.3L72.3 12.3 72.3 12.3l-0.4-0.8H28.2L6.3 50l21.8 38.5h43.7L93.7 50 72.3 12.3zM33.3 25.3L9.9 47.7l18.6-32.8L33.3 25.3zM70.7 14.8l6.4 35.7L36.9 25.8 70.7 14.8zM35.5 27.3l41 25.2-41 23.3V27.3zM77 54.5l-7.2 30.8-32.6-8.1L77 54.5zM33.5 75L9.9 50.5l23.6-22.7V75zM33.2 77.6l-4.6 7.7L11.5 55.1 33.2 77.6zM35 78.6l31.4 7.9H30.2L35 78.6zM79.3 53.3l11.6-2.5L72.1 84 79.3 53.3zM90.7 48.9l-11.4 2.5-5.9-33.1L90.7 48.9zM35 24.3l-5-10.8h38.2L35 24.3z" fill="#8b3c7f" data-fill-palette-color="accent"></path></svg></g></svg></g></svg></g></svg></g></svg></g><defs></defs></svg><rect width="395.52" height="136.2542258747107" fill="none" stroke="none" visibility="hidden"></rect></g></svg></g></svg>